<svg preserveAspectRatio="none" overflow="visible" style="display: block;" width="48" height="48" viewBox="0 0 48 48" fill="none" xmlns="http://www.w3.org/2000/svg">
<g id="fi_15577607">
<path id="Vector" fill-rule="evenodd" clip-rule="evenodd" d="M9.06389 36.0767C9.06634 36.0811 9.06878 36.0854 9.07123 36.0898L13.1001 43.2853C13.1023 43.2891 13.1045 43.293 13.1066 43.2968L13.9921 44.8782C14.0665 45.0123 14.0209 45.1838 13.8888 45.2592L13.8878 45.2598L11.9455 46.3724C11.8129 46.4475 11.6433 46.4013 11.5687 46.2679L11.5684 46.2674L5.85109 36.0566L5.8509 36.0562C5.77608 35.9228 5.82163 35.7522 5.95302 35.6773L5.95368 35.6769L7.89947 34.5635C8.03179 34.488 8.20102 34.5368 8.2765 34.6705L9.06389 36.0767ZM7.59565 35.7163C7.15443 35.78 6.84977 36.1942 6.91283 36.6402C6.97843 37.0861 7.38822 37.3967 7.82944 37.3303C8.27066 37.2666 8.57532 36.8499 8.51236 36.4038C8.44667 35.9579 8.03697 35.65 7.59565 35.7163ZM14.03 41.8885L10.7276 35.9906L15.782 33.0328C16.9469 32.3519 18.1173 31.81 19.3969 32.2299L19.3972 32.23C21.0659 32.7769 23.7862 33.942 26.5659 34.4584C27.1877 34.6833 27.5905 35.3101 27.4181 35.958L27.418 35.9584C27.2474 36.6003 26.7026 36.9065 25.9617 36.8245C24.437 36.5059 23.0212 36.0379 21.4506 35.6114C21.0535 35.5035 20.6445 35.7417 20.5379 36.143C20.4311 36.5444 20.6668 36.9577 21.0639 37.0656C22.675 37.5032 25.7136 38.3101 25.7237 38.3118L26.5839 38.4533C26.5847 38.4534 26.5856 38.4535 26.5864 38.4537C27.8694 38.6601 29.0466 38.4768 30.1699 37.8152L37.1018 33.7346C38.6899 32.7995 39.7827 32.601 40.4952 32.9007C41.0328 33.1268 41.2443 33.6717 41.2308 34.1856C41.2194 34.6194 41.0601 35.0566 40.7236 35.2661L28.1443 43.094L28.1436 43.0945C27.1682 43.703 26.0991 43.8402 24.9923 43.5418L15.8683 41.0703C15.6774 41.0186 15.4741 41.0456 15.3029 41.1456L14.03 41.8885ZM15.6646 9.07293V12.3066C15.6646 13.003 15.0993 13.5684 14.4029 13.5684C13.7065 13.5684 13.1413 13.003 13.1413 12.3066V9.07293C12.5849 9.41796 11.8472 9.2797 11.4564 8.74173C11.047 8.17834 11.1721 7.3886 11.7355 6.97928L13.6613 5.58013C14.1035 5.25881 14.7023 5.25881 15.1445 5.58013L17.0704 6.97928C17.6337 7.3886 17.7588 8.17834 17.3495 8.74173C16.9587 9.2797 16.2209 9.41796 15.6646 9.07293ZM7.43349 15.6901V18.9237C7.43349 19.6201 6.86812 20.1855 6.17184 20.1855C5.47546 20.1855 4.9101 19.6201 4.9101 18.9237V15.6901C4.35377 16.0351 3.61608 15.8968 3.22521 15.3589C2.81589 14.7955 2.94097 14.0057 3.50436 13.5965L5.43019 12.1973C5.87236 11.8759 6.47123 11.8759 6.91339 12.1973L8.83923 13.5965C9.40262 14.0057 9.5277 14.7955 9.11838 15.3589C8.72751 15.8968 7.98982 16.0351 7.43349 15.6901ZM13.8083 23.9192V27.153C13.8083 27.8494 13.243 28.4147 12.5466 28.4147C11.8502 28.4147 11.2849 27.8494 11.2849 27.153V23.9192C10.7286 24.2643 9.99085 24.126 9.60008 23.588C9.19076 23.0246 9.31584 22.235 9.87914 21.8257L11.805 20.4264C12.2472 20.1052 12.846 20.1052 13.2882 20.4264L15.214 21.8257C15.7774 22.235 15.9025 23.0246 15.4932 23.588C15.1023 24.126 14.3646 24.2643 13.8083 23.9192ZM30.2588 17.3972L39.1996 26.3381C36.9114 28.6262 33.7504 30.0415 30.2588 30.0415C23.2756 30.0415 17.6145 24.3804 17.6145 17.3972C17.6145 10.414 23.2756 4.75302 30.2588 4.75302V17.3972ZM45.0105 16.3435C45.0105 19.8351 43.5952 22.9961 41.307 25.2843L32.3662 16.3435H45.0105ZM32.3662 1.5918C39.3494 1.5918 45.0105 7.25279 45.0105 14.236H32.3662V1.5918Z" fill="#60A5FA"/>
</g>
</svg>
