<svg preserveAspectRatio="none" overflow="visible" style="display: block;" width="23" height="28" viewBox="0 0 23 28" fill="none" xmlns="http://www.w3.org/2000/svg">
<path id="Vector" fill-rule="evenodd" clip-rule="evenodd" d="M14.4665 24.9335C14.4665 25.1682 14.2795 25.3578 14.0493 25.3578H8.9506C8.7204 25.3578 8.53344 25.1682 8.53344 24.9335C8.53344 24.6993 8.7204 24.5093 8.9506 24.5093H14.0493C14.2795 24.5093 14.4665 24.6993 14.4665 24.9335ZM8.53344 17.115C8.53344 16.8808 8.7204 16.6907 8.9506 16.6907H12.2039C12.4348 16.6907 12.6211 16.8808 12.6211 17.115C12.6211 17.3492 12.4348 17.5392 12.2039 17.5392H8.9506C8.7204 17.5392 8.53344 17.3492 8.53344 17.115ZM14.4665 19.721C14.4665 19.9557 14.2795 20.1452 14.0493 20.1452H8.9506C8.7204 20.1452 8.53344 19.9557 8.53344 19.721C8.53344 19.4868 8.7204 19.2967 8.9506 19.2967H14.0493C14.2795 19.2967 14.4665 19.4867 14.4665 19.721ZM14.4665 22.3275C14.4665 22.5617 14.2795 22.7518 14.0493 22.7518H8.9506C8.7204 22.7518 8.53344 22.5617 8.53344 22.3275C8.53344 22.0934 8.7204 21.9032 8.9506 21.9032H14.0493C14.2795 21.9032 14.4665 22.0934 14.4665 22.3275ZM11.5 6.62217C11.2698 6.62217 11.0828 6.43203 11.0828 6.19783V6.13166C10.7799 6.08814 10.4871 6.00098 10.2091 5.86917C10.0008 5.77014 9.90971 5.51784 10.0071 5.30577C10.1044 5.09316 10.3526 5.00151 10.5613 5.09994C10.9489 5.28318 11.5403 5.4107 11.9565 5.22545C12.5285 4.97094 11.9338 4.67258 11.5099 4.67171C10.7583 4.67016 10.0201 4.25863 9.98493 3.51434C9.9842 3.50301 9.98493 3.49175 9.98565 3.47988C10.0125 2.98346 10.3639 2.53237 11.0829 2.37568V2.2971C11.0829 2.06284 11.2698 1.87276 11.5 1.87276C11.7302 1.87276 11.9172 2.06277 11.9172 2.2971V2.36442C12.2342 2.40907 12.5227 2.49623 12.7919 2.62912C12.9989 2.73143 13.085 2.98547 12.9845 3.19587C12.8833 3.40686 12.6334 3.49396 12.4264 3.39164C12.0641 3.21249 11.4708 3.08805 11.0572 3.27056C10.4915 3.52017 11.0709 3.82289 11.5095 3.82316C12.2539 3.82363 12.9874 4.23382 13.0312 4.96812C13.0323 4.98669 13.0323 5.00486 13.0305 5.02357C12.9869 5.56048 12.6046 5.97798 11.9171 6.122V6.19783C11.9171 6.43203 11.7302 6.62217 11.5 6.62217ZM22.1656 23.9939C22.1656 24.0075 22.153 24.0205 22.1396 24.0205H20.0956V13.4688C20.0956 12.9975 19.7192 12.6146 19.2563 12.6146H16.1974V11.7926C16.1974 11.7791 16.21 11.7661 16.2234 11.7661H22.1396C22.153 11.7661 22.1656 11.779 22.1656 11.7926V23.9939ZM19.2613 25.7118V13.4688C19.2613 13.4665 19.2581 13.4631 19.2563 13.4631H13.6146C13.6128 13.4631 13.609 13.4665 13.609 13.4688V14.0486H14.0711C14.1818 14.0486 14.2879 14.0933 14.3663 14.173L16.4591 16.3016C16.5375 16.3813 16.5818 16.4894 16.5818 16.6019V25.7175H19.2563C19.2581 25.7175 19.2613 25.7135 19.2613 25.7118ZM14.4883 15.4973L15.1574 16.1778H14.5533C14.5188 16.1778 14.4883 16.1467 14.4883 16.1116V15.4973ZM15.6828 27.1514C15.7172 27.1514 15.7475 27.1208 15.7475 27.0857V17.0261H14.5533C14.0574 17.0261 13.6539 16.6161 13.6539 16.1116V14.8972H7.31703C7.28262 14.8972 7.25236 14.9276 7.25236 14.9627V27.0858C7.25236 27.1209 7.28256 27.1515 7.31703 27.1515L15.6828 27.1514ZM3.74362 25.7175H6.41844V14.9626C6.41844 14.4587 6.82156 14.0486 7.3171 14.0486H9.39064V13.4688C9.39064 13.4666 9.38714 13.4631 9.38536 13.4631H3.74362C3.74184 13.4631 3.73802 13.4666 3.73802 13.4688V25.7119C3.73802 25.7135 3.74184 25.7175 3.74362 25.7175ZM0.860358 24.0204C0.846976 24.0204 0.834385 24.0074 0.834385 23.9939V11.7927C0.834385 11.7792 0.847042 11.7662 0.860358 11.7662H6.77653C6.78992 11.7662 6.80257 11.7791 6.80257 11.7927V12.6147H3.74362C3.28111 12.6147 2.90403 12.9975 2.90403 13.4688V24.0205H0.860358V24.0204ZM8.15808 4.24743C8.15808 6.12207 9.65736 7.64645 11.5 7.64645C13.3426 7.64645 14.8419 6.12207 14.8419 4.24743C14.8419 2.3736 13.3426 0.848481 11.5 0.848481C9.65736 0.848481 8.15808 2.3736 8.15808 4.24743ZM9.18219 10.6072C8.5668 10.3634 8.0702 9.92779 7.81752 9.42669C8.91817 9.01153 10.4368 9.61335 10.9728 10.675C10.4537 10.8706 9.79791 10.8504 9.18219 10.6072ZM13.3921 9.49507C14.0079 9.25129 14.6637 9.23091 15.1824 9.42669C14.6455 10.4915 13.1302 11.0907 12.0272 10.675C12.2798 10.1739 12.7764 9.73832 13.3921 9.49507ZM22.1396 10.9177H16.2234C15.7493 10.9177 15.363 11.3104 15.363 11.7928V12.6148H13.6146C13.1518 12.6148 12.7747 12.9976 12.7747 13.4689V14.0487H11.9172V11.5327C13.5692 12.0295 15.6528 10.9973 16.1113 9.33275C16.1612 9.15126 16.0874 8.95715 15.93 8.85759C14.7306 8.10009 12.9779 8.43841 11.9172 9.44539V8.47408C14.0251 8.26027 15.6762 6.44685 15.6762 4.2475C15.6762 1.90575 13.803 0 11.5 0C9.19702 0 7.32382 1.90575 7.32382 4.2475C7.32382 6.44691 8.97493 8.26033 11.0829 8.47408V9.44539C10.022 8.43821 8.26982 8.09989 7.07009 8.85759C6.91266 8.95715 6.83883 9.15126 6.88873 9.33275C7.34729 10.9974 9.43098 12.0295 11.0829 11.5327V14.0487H10.2246V13.4689C10.2246 12.9976 9.84821 12.6148 9.38536 12.6148H7.63689V11.7928C7.63689 11.3104 7.25065 10.9177 6.77653 10.9177H0.860358C0.386242 10.9177 0 11.3104 0 11.7928V23.994C0 24.4765 0.386242 24.869 0.860358 24.869H2.90403V25.712C2.90403 26.1825 3.28111 26.5661 3.74362 26.5661H6.41844V27.0859C6.41844 27.5899 6.82156 28 7.3171 28H15.6829C16.1784 28 16.5819 27.5899 16.5819 27.0859V26.5661H19.2564C19.7192 26.5661 20.0956 26.1826 20.0956 25.712V24.869H22.1396C22.6138 24.869 23 24.4765 23 23.994V11.7927C22.9999 11.3103 22.6137 10.9177 22.1396 10.9177Z" fill="black"/>
</svg>
