<svg preserveAspectRatio="none" overflow="visible" style="display: block;" width="20.1987" height="24" viewBox="0 0 20.1987 24" fill="none" xmlns="http://www.w3.org/2000/svg">
<g id="Group">
<path id="Vector" d="M20.1733 6.17758C20.1446 5.54619 20.1446 4.9435 20.1446 4.34081C20.1446 3.85291 19.7716 3.47982 19.2837 3.47982C15.6962 3.47982 12.9698 2.44664 10.7025 0.236771C10.3581 -0.0789238 9.84151 -0.0789238 9.49711 0.236771C7.22985 2.44664 4.50339 3.47982 0.915945 3.47982C0.428053 3.47982 0.0549584 3.85291 0.0549584 4.34081C0.0549584 4.9435 0.0549584 5.54619 0.0262588 6.17758C-0.0885394 12.2045 -0.260737 20.47 9.81281 23.9426L10.0998 24L10.3868 23.9426C20.4316 20.47 20.2881 12.2332 20.1733 6.17758ZM9.41101 14.5291C9.23882 14.6726 9.03792 14.7587 8.80832 14.7587H8.77962C8.55003 14.7587 8.32043 14.6439 8.17693 14.4717L5.50787 11.5157L6.79935 10.3677L8.89442 12.6924L13.5437 8.27265L14.7204 9.53543L9.41101 14.5291Z" fill="#00599A"/>
</g>
</svg>
