<svg preserveAspectRatio="none" overflow="visible" style="display: block;" width="35" height="35" viewBox="0 0 35 35" fill="none" xmlns="http://www.w3.org/2000/svg">
<g id="_x31_4">
<path id="Vector" d="M31.25 27.5C29.6226 27.5 28.248 28.5481 27.7303 30H8.125C5.02319 30 2.5 27.4768 2.5 24.375C2.5 21.2732 5.02319 18.75 8.125 18.75H13.9804C14.4981 20.2019 15.8726 21.25 17.5 21.25C19.1274 21.25 20.502 20.2019 21.0197 18.75H26.875C31.355 18.75 35 15.105 35 10.625C35 6.14502 31.355 2.5 26.875 2.5H7.26967C6.75201 1.04813 5.37743 0 3.75 0C1.68213 0 0 1.68213 0 3.75C0 5.81787 1.68213 7.5 3.75 7.5C5.37743 7.5 6.75201 6.45187 7.26967 5H26.875C29.9768 5 32.5 7.52319 32.5 10.625C32.5 13.7268 29.9768 16.25 26.875 16.25H21.0197C20.502 14.7981 19.1274 13.75 17.5 13.75C15.8726 13.75 14.498 14.7981 13.9803 16.25H8.125C3.64502 16.25 0 19.895 0 24.375C0 28.855 3.64502 32.5 8.125 32.5H27.7304C28.2481 33.9519 29.6226 35 31.25 35C33.3179 35 35 33.3179 35 31.25C35 29.1821 33.3179 27.5 31.25 27.5Z" fill="#00599A"/>
</g>
</svg>
